<svg width="908" height="553" viewBox="0 0 908 553" fill="none" xmlns="http://www.w3.org/2000/svg">
<path fill-rule="evenodd" clip-rule="evenodd" d="M523.453 500.348C636.998 500.185 751.733 578.811 845.883 544.194C938.874 510.004 876.043 427.474 887.193 366.611C895.408 321.764 918.437 279.202 902.528 234.975C884.782 185.642 852.521 138.587 791.599 100.859C718.09 55.3353 634.469 3.91582 523.453 0.217708C411.135 -3.52379 314.936 41.6547 230.404 82.1647C152.411 119.541 101.254 167.894 63.4944 220.641C23.4771 276.543 -17.1009 335.095 7.46835 393.59C33.2501 454.973 91.8294 522.789 199.783 545.125C306.464 567.197 409.355 500.513 523.453 500.348Z" fill="#F1F8FF"/>
<path d="M447.02 270.885C447.166 275.376 447.102 291.102 447.843 297.829" stroke="#1F161E" stroke-miterlimit="10" stroke-linecap="round"/>
<path d="M250.198 257.322H244.711C244.135 257.319 243.583 257.09 243.175 256.683C242.767 256.276 242.537 255.725 242.535 255.15V221.488C242.534 221.203 242.59 220.92 242.7 220.657C242.81 220.394 242.972 220.155 243.175 219.955L250.107 213.036C250.308 212.834 250.548 212.673 250.811 212.564C251.075 212.454 251.358 212.398 251.643 212.397H272.119C272.696 212.4 273.248 212.629 273.656 213.036C274.063 213.443 274.293 213.994 274.296 214.57V217.819" fill="#1D87FF"/>
<path d="M259.417 217.819H279.536C279.859 217.819 280.178 217.882 280.476 218.006C280.774 218.129 281.045 218.31 281.272 218.539C281.5 218.767 281.68 219.037 281.803 219.335C281.926 219.633 281.988 219.952 281.987 220.274V260.252C281.987 260.901 281.729 261.524 281.27 261.985C280.81 262.445 280.187 262.704 279.536 262.707H252.659C252.008 262.704 251.384 262.445 250.925 261.985C250.466 261.524 250.208 260.901 250.208 260.252V227.028C250.207 226.707 250.269 226.388 250.391 226.09C250.514 225.793 250.694 225.522 250.921 225.294L257.688 218.54C258.146 218.081 258.768 217.821 259.417 217.819V217.819Z" fill="#D8D8D8"/>
<path d="M250.198 226.07H257.03C257.394 226.07 257.743 225.926 258 225.669C258.257 225.412 258.402 225.064 258.402 224.701V217.819" fill="#969696"/>
<path d="M242.508 220.658H249.339C249.705 220.655 250.054 220.509 250.313 220.251C250.571 219.993 250.718 219.644 250.72 219.279V212.397" fill="#F1F8FF"/>
<path d="M281.959 172.119H329.112C330.642 172.119 331.883 173.357 331.883 174.884V190.255C331.883 191.782 330.642 193.02 329.112 193.02H281.959C280.429 193.02 279.188 191.782 279.188 190.255V174.884C279.188 173.357 280.429 172.119 281.959 172.119Z" fill="#1D87FF"/>
<path d="M305.545 207.35L299.198 188.164H311.891L305.545 207.35Z" fill="#1D87FF"/>
<path d="M318.119 177.686L323.442 186.877H312.806L318.119 177.686Z" fill="white"/>
<path d="M292.961 186.877L287.639 177.686H298.283L292.961 186.877Z" fill="white"/>
<path d="M305.545 186.275C303.338 186.275 301.548 184.489 301.548 182.286C301.548 180.084 303.338 178.298 305.545 178.298C307.752 178.298 309.541 180.084 309.541 182.286C309.541 184.489 307.752 186.275 305.545 186.275Z" fill="white"/>
<path d="M309.651 127.824H340.598C341.936 127.824 343.021 128.907 343.021 130.243V148.917C343.021 150.253 341.936 151.336 340.598 151.336H309.651C308.313 151.336 307.228 150.253 307.228 148.917V130.243C307.228 128.907 308.313 127.824 309.651 127.824Z" fill="#D8D8D8"/>
<path d="M341.474 129.169L325.474 139.169" stroke="#969696" stroke-width="0.82" stroke-linecap="round" stroke-linejoin="round"/>
<path d="M308.474 129.169L325.474 139.169" stroke="#969696" stroke-width="0.82" stroke-linecap="round" stroke-linejoin="round"/>
<path d="M306.11 130.133H306.773V125.738L308.103 126.226V125.627L306.214 124.918H306.11V130.133Z" fill="white"/>
<path d="M271.059 221.944H277.533C278.008 221.944 278.393 222.329 278.393 222.802C278.393 223.276 278.008 223.66 277.533 223.66H271.059C270.584 223.66 270.199 223.276 270.199 222.802C270.199 222.329 270.584 221.944 271.059 221.944Z" fill="#969696"/>
<path d="M271.059 226.07H277.533C278.008 226.07 278.393 226.454 278.393 226.928C278.393 227.402 278.008 227.786 277.533 227.786H271.059C270.584 227.786 270.199 227.402 270.199 226.928C270.199 226.454 270.584 226.07 271.059 226.07Z" fill="#969696"/>
<path d="M254.268 233.125H277.908C278.383 233.125 278.768 233.509 278.768 233.983C278.768 234.457 278.383 234.841 277.908 234.841H254.268C253.793 234.841 253.408 234.457 253.408 233.983C253.408 233.509 253.793 233.125 254.268 233.125Z" fill="#969696"/>
<path d="M254.268 237.178H277.908C278.383 237.178 278.768 237.562 278.768 238.036C278.768 238.51 278.383 238.894 277.908 238.894H254.268C253.793 238.894 253.408 238.51 253.408 238.036C253.408 237.562 253.793 237.178 254.268 237.178Z" fill="#969696"/>
<path d="M254.268 241.23H277.908C278.383 241.23 278.768 241.615 278.768 242.088C278.768 242.562 278.383 242.946 277.908 242.946H254.268C253.793 242.946 253.408 242.562 253.408 242.088C253.408 241.615 253.793 241.23 254.268 241.23Z" fill="#969696"/>
<path d="M372.487 148.077H405.876C411.937 148.077 416.85 152.981 416.85 159.03V175.286C416.85 181.335 411.937 186.239 405.876 186.239H372.487C366.426 186.239 361.513 181.335 361.513 175.286V159.03C361.513 152.981 366.426 148.077 372.487 148.077Z" fill="#D8D8D8"/>
<path d="M397.078 154.22H405.4V180.096H397.078V154.22Z" fill="#1D87FF"/>
<path d="M385.016 171.434H393.338V180.105H385.016V171.434Z" fill="#1D87FF"/>
<path d="M372.963 164.132H381.285V180.096H372.963V164.132Z" fill="#1D87FF"/>
<path d="M363.763 469.695C363.763 471.858 365.034 485.504 362.501 486.763C359.967 488.023 332.12 488.79 330.858 487.521C329.596 486.252 328.837 483.605 329.944 482.848C331.051 482.09 341.833 479.945 343.296 478.932C344.759 477.919 346.78 472.543 346.039 469.695" fill="#1F161E"/>
<path d="M447.02 291.321L431.345 285.708C432.022 257.167 438.707 193.394 448.199 183.911C450.431 181.693 494.565 177.823 502.439 177.823C549.427 177.823 563.364 183.172 566.903 186.713C577.877 197.666 581.297 248.414 581.297 266.184C581.297 283.955 530.999 293.174 530.999 293.174L472.041 297.217C472.041 297.217 459.11 298.55 447.925 299.207C447.678 295.784 447.02 291.321 447.02 291.321Z" fill="#1D87FF"/>
<path d="M400.316 307.869C396.027 306.6 353.374 299.654 344.082 308.781C334.791 317.909 305.545 448.767 305.545 451.779H329.094L360.882 383.497" fill="#16283D"/>
<path d="M555.609 296.231C556.679 301.571 563.108 307.303 563.108 336.391C563.108 376.615 530.094 377.464 518.242 377.464C481.314 377.464 421.569 366.511 417.536 364.503C414.856 368.976 365.537 469.467 365.308 471.712H342.601C342.601 471.712 356.675 321.368 382.071 304.318C390.32 298.842 536.669 292.982 555.609 296.231Z" fill="#606E7F"/>
<path d="M422.639 266.823C428.601 266.823 433.522 268.238 447.02 270.885L447.724 296.66C434.921 291.513 431.949 284.357 428.236 284.357C418.962 284.357 414.116 289.13 408.638 289.13C404.815 289.13 397.938 286.137 397.938 282.066C397.938 273.541 415.25 266.823 422.639 266.823Z" fill="#F8CDBA"/>
<path d="M327.758 449.971C327.758 452.143 329.029 465.78 326.496 467.048C323.963 468.317 296.116 469.065 294.854 467.806C293.592 466.546 292.833 463.89 293.94 463.133C295.046 462.375 305.828 460.221 307.291 459.208C308.755 458.195 310.776 452.819 310.035 449.971" fill="#1F161E"/>
<path d="M494.126 183.893C494.126 187.334 514.145 187.434 514.145 183.893V155.909H494.126V183.893Z" fill="#F8CDBA"/>
<path d="M500.647 165.136C502.476 165.136 514.145 170.284 514.145 173.159V157.971C511.237 157.971 500.647 165.136 500.647 165.136Z" fill="#1F161E"/>
<path d="M496.778 166.323C483.394 166.323 472.544 155.494 472.544 142.136C472.544 128.777 483.394 117.948 496.778 117.948C510.163 117.948 521.013 128.777 521.013 142.136C521.013 155.494 510.163 166.323 496.778 166.323Z" fill="#F8CDBA"/>
<path d="M471.766 123.151C474.766 127.906 481.04 130.088 487.834 130.088C493.623 130.088 502.055 128.408 508.054 131.822C511.301 133.647 515.023 137.8 515.773 146.115C515.773 147.539 517.391 153.061 517.391 154.841C517.391 156.055 518.763 156.849 521.049 156.849C522.229 156.849 524.561 154.941 524.561 152.029C524.561 148.662 523.217 147.466 523.217 144.609C523.217 141.752 526.719 139.005 526.719 131.064C526.719 119.628 519.403 112.581 514.227 112.581C509.508 112.581 508.027 113.677 507.432 114.142C507.432 103.746 493.715 99 488.273 99C482.055 99 479.128 101.547 479.128 104.787C479.128 109.953 481.597 114.343 482.85 115.329C480.014 112.783 476.331 111.38 472.516 111.395C465.392 111.395 462.996 116.068 462.996 119.263C462.996 126.208 471.346 132.643 474.455 132.643C475.237 130.991 476.155 129.407 477.199 127.906" fill="#1F161E"/>
<path d="M515.023 150.487C512.169 150.487 509.856 148.178 509.856 145.33C509.856 142.482 512.169 140.173 515.023 140.173C517.876 140.173 520.19 142.482 520.19 145.33C520.19 148.178 517.876 150.487 515.023 150.487Z" fill="#F8CDBA"/>
<path d="M472.306 146.571C470.094 146.571 468.3 145.64 468.3 144.49C468.3 143.341 470.094 142.409 472.306 142.409C474.518 142.409 476.312 143.341 476.312 144.49C476.312 145.64 474.518 146.571 472.306 146.571Z" fill="#FA9E9F"/>
<path d="M497.501 146.571C495.289 146.571 493.495 145.64 493.495 144.49C493.495 143.341 495.289 142.409 497.501 142.409C499.713 142.409 501.506 143.341 501.506 144.49C501.506 145.64 499.713 146.571 497.501 146.571Z" fill="#FA9E9F"/>
<path d="M482.091 140.173C481.341 141.241 477.518 145.723 481.551 147.539" stroke="#1F161E" stroke-miterlimit="10" stroke-linecap="round"/>
<path d="M489.627 152.769C490.834 152.769 492.69 151.272 493.669 149.93" stroke="#1F161E" stroke-miterlimit="10" stroke-linecap="round"/>
<path d="M457.674 217.728C455.845 221.607 447.02 259.029 447.02 270.885" stroke="#1F161E" stroke-miterlimit="10" stroke-linecap="round"/>
<path d="M581.297 263.172C581.297 305.24 580.904 317.443 563.986 317.443C524.991 317.443 466.042 285.498 455.534 285.498C446.251 285.498 441.405 290.28 435.927 290.28C432.113 290.28 425.236 287.278 425.236 283.216C425.236 274.682 442.548 267.964 449.928 267.964C466.544 267.964 532.856 283.955 534.474 283.955C536.093 283.955 538.818 283.252 538.818 280.532C538.818 275.595 535.581 264.186 535.16 263.191L581.297 263.172Z" fill="#F8CDBA"/>
<path d="M525.421 226.481C526.537 229.684 535.234 262.789 536.24 266.823" stroke="#1F161E" stroke-miterlimit="10" stroke-linecap="round"/>
<path d="M331.672 290.308H416.274L400.947 237.698C400.564 236.429 399.78 235.317 398.712 234.529C397.644 233.741 396.349 233.319 395.021 233.326H323.232C322.289 233.311 321.355 233.516 320.506 233.925C319.656 234.333 318.914 234.934 318.338 235.68C317.763 236.425 317.369 237.295 317.19 238.219C317.011 239.143 317.05 240.096 317.306 241.002L331.672 290.308Z" fill="#16283D"/>
<path d="M363.589 266.978C360.73 266.978 358.413 264.666 358.413 261.812C358.413 258.959 360.73 256.646 363.589 256.646C366.447 256.646 368.765 258.959 368.765 261.812C368.765 264.666 366.447 266.978 363.589 266.978Z" fill="white"/>
<path d="M406.223 286.611H465.584V290.308H406.223V286.611Z" fill="#16283D"/>
</svg>
