<svg width="1114" height="413" viewBox="0 0 1114 413" fill="none" xmlns="http://www.w3.org/2000/svg">
<circle cx="1039" cy="338" r="75" fill="#F1F8FF"/>
<path d="M12.288 30.48C10.7307 30.48 9.312 30.224 8.032 29.712C6.752 29.2 5.65333 28.4533 4.736 27.472C3.81867 26.4907 3.104 25.2853 2.592 23.856C2.10133 22.4053 1.856 20.752 1.856 18.896C1.856 17.04 2.13333 15.3973 2.688 13.968C3.264 12.5173 4.032 11.3013 4.992 10.32C5.952 9.33867 7.072 8.592 8.352 8.08C9.632 7.568 10.9973 7.312 12.448 7.312C13.3653 7.312 14.1867 7.376 14.912 7.504C15.6587 7.632 16.2987 7.78133 16.832 7.952C17.3867 8.12267 17.8347 8.29333 18.176 8.464C18.5173 8.63467 18.752 8.76267 18.88 8.848L17.984 11.408C17.792 11.28 17.5147 11.1413 17.152 10.992C16.7893 10.8427 16.3733 10.6933 15.904 10.544C15.456 10.3947 14.9547 10.2773 14.4 10.192C13.8667 10.0853 13.3227 10.032 12.768 10.032C11.5947 10.032 10.5387 10.2347 9.6 10.64C8.66133 11.0453 7.86133 11.632 7.2 12.4C6.53867 13.168 6.02667 14.1067 5.664 15.216C5.32267 16.304 5.152 17.5307 5.152 18.896C5.152 20.2187 5.30133 21.424 5.6 22.512C5.92 23.6 6.38933 24.5387 7.008 25.328C7.62667 26.096 8.39467 26.6933 9.312 27.12C10.2507 27.5467 11.3387 27.76 12.576 27.76C14.0053 27.76 15.1893 27.6107 16.128 27.312C17.0667 27.0133 17.7707 26.7467 18.24 26.512L19.04 29.072C18.8907 29.1787 18.624 29.3173 18.24 29.488C17.856 29.6373 17.376 29.7867 16.8 29.936C16.224 30.0853 15.552 30.2133 14.784 30.32C14.016 30.4267 13.184 30.48 12.288 30.48ZM36.623 21.68C36.623 23.0027 36.431 24.1973 36.047 25.264C35.663 26.3307 35.119 27.248 34.415 28.016C33.7323 28.784 32.911 29.3813 31.951 29.808C30.991 30.2133 29.9457 30.416 28.815 30.416C27.6843 30.416 26.639 30.2133 25.679 29.808C24.719 29.3813 23.887 28.784 23.183 28.016C22.5003 27.248 21.967 26.3307 21.583 25.264C21.199 24.1973 21.007 23.0027 21.007 21.68C21.007 20.3787 21.199 19.1947 21.583 18.128C21.967 17.04 22.5003 16.112 23.183 15.344C23.887 14.576 24.719 13.9893 25.679 13.584C26.639 13.1573 27.6843 12.944 28.815 12.944C29.9457 12.944 30.991 13.1573 31.951 13.584C32.911 13.9893 33.7323 14.576 34.415 15.344C35.119 16.112 35.663 17.04 36.047 18.128C36.431 19.1947 36.623 20.3787 36.623 21.68ZM33.519 21.68C33.519 19.8027 33.0923 18.32 32.239 17.232C31.407 16.1227 30.2657 15.568 28.815 15.568C27.3643 15.568 26.2123 16.1227 25.359 17.232C24.527 18.32 24.111 19.8027 24.111 21.68C24.111 23.5573 24.527 25.0507 25.359 26.16C26.2123 27.248 27.3643 27.792 28.815 27.792C30.2657 27.792 31.407 27.248 32.239 26.16C33.0923 25.0507 33.519 23.5573 33.519 21.68ZM44.5028 12.944C45.4628 12.944 46.3588 13.04 47.1908 13.232C48.0228 13.424 48.7374 13.712 49.3348 14.096C49.9321 14.48 50.4014 14.96 50.7428 15.536C51.0841 16.112 51.2548 16.784 51.2548 17.552C51.2548 18.0427 51.1694 18.4907 50.9988 18.896C50.8281 19.3013 50.6148 19.664 50.3588 19.984C50.1028 20.304 49.8148 20.5813 49.4948 20.816C49.1961 21.0293 48.9081 21.1787 48.6308 21.264C49.6121 21.5627 50.3801 22.096 50.9348 22.864C51.5108 23.6107 51.7988 24.56 51.7988 25.712C51.7988 27.2907 51.1588 28.464 49.8788 29.232C48.5988 30 46.8601 30.384 44.6628 30.384C43.3188 30.384 42.1561 30.2773 41.1748 30.064C40.2148 29.8507 39.5321 29.648 39.1268 29.456L39.6388 26.928C39.9801 27.056 40.5881 27.2373 41.4628 27.472C42.3588 27.6853 43.4254 27.792 44.6628 27.792C46.0068 27.792 47.0308 27.5893 47.7348 27.184C48.4388 26.7573 48.7908 26.128 48.7908 25.296C48.7908 24.6987 48.6521 24.2187 48.3748 23.856C48.1188 23.472 47.7881 23.184 47.3828 22.992C46.9774 22.8 46.5401 22.672 46.0708 22.608C45.6014 22.544 45.1641 22.512 44.7588 22.512H41.9748V20.144H44.6628C45.0468 20.144 45.4414 20.1227 45.8468 20.08C46.2734 20.016 46.6574 19.8987 46.9988 19.728C47.3614 19.5573 47.6601 19.3227 47.8948 19.024C48.1294 18.704 48.2468 18.288 48.2468 17.776C48.2468 17.3707 48.1401 17.0293 47.9268 16.752C47.7348 16.4533 47.4681 16.208 47.1267 16.016C46.7854 15.824 46.3801 15.6853 45.9108 15.6C45.4628 15.4933 44.9934 15.44 44.5028 15.44C44.1188 15.44 43.7028 15.472 43.2548 15.536C42.8068 15.6 42.3694 15.6853 41.9427 15.792C41.5161 15.8773 41.1321 15.9733 40.7908 16.08C40.4494 16.1867 40.2041 16.2827 40.0548 16.368L39.5108 13.808C39.6814 13.744 39.9481 13.6587 40.3108 13.552C40.6734 13.4453 41.0788 13.3493 41.5268 13.264C41.9961 13.1787 42.4868 13.104 42.9988 13.04C43.5108 12.976 44.0121 12.944 44.5028 12.944ZM53.887 27.568H55.679C56.383 26.544 56.9377 25.488 57.343 24.4C57.7697 23.312 58.0897 22.192 58.303 21.04C58.5163 19.8667 58.655 18.6507 58.719 17.392C58.783 16.112 58.8257 14.768 58.847 13.36H69.759V27.568H71.999V34.64H69.183V30H56.703V34.64H53.887V27.568ZM66.783 27.568V15.856H61.567C61.5457 16.8587 61.4923 17.872 61.407 18.896C61.3217 19.8987 61.183 20.9013 60.991 21.904C60.799 22.8853 60.5217 23.856 60.159 24.816C59.8177 25.7547 59.3803 26.672 58.847 27.568H66.783ZM80.8483 27.856C81.5523 27.856 82.1709 27.8453 82.7043 27.824C83.2589 27.7813 83.7176 27.7173 84.0803 27.632V22.672C83.8669 22.5653 83.5149 22.48 83.0243 22.416C82.5549 22.3307 81.9789 22.288 81.2963 22.288C80.8483 22.288 80.3683 22.32 79.8563 22.384C79.3656 22.448 78.9069 22.5867 78.4803 22.8C78.0749 22.992 77.7336 23.2693 77.4563 23.632C77.1789 23.9733 77.0403 24.432 77.0403 25.008C77.0403 26.0747 77.3816 26.8213 78.0643 27.248C78.7469 27.6533 79.6749 27.856 80.8483 27.856ZM80.5923 12.944C81.7869 12.944 82.7896 13.104 83.6003 13.424C84.4323 13.7227 85.0936 14.16 85.5843 14.736C86.0963 15.2907 86.4589 15.9627 86.6723 16.752C86.8856 17.52 86.9923 18.3733 86.9923 19.312V29.712C86.7363 29.7547 86.3736 29.8187 85.9043 29.904C85.4563 29.968 84.9443 30.032 84.3683 30.096C83.7923 30.16 83.1629 30.2133 82.4803 30.256C81.8189 30.32 81.1576 30.352 80.4963 30.352C79.5576 30.352 78.6936 30.256 77.9043 30.064C77.1149 29.872 76.4323 29.5733 75.8563 29.168C75.2803 28.7413 74.8323 28.1867 74.5123 27.504C74.1923 26.8213 74.0323 26 74.0323 25.04C74.0323 24.1227 74.2136 23.3333 74.5763 22.672C74.9603 22.0107 75.4723 21.4773 76.1123 21.072C76.7523 20.6667 77.4989 20.368 78.3523 20.176C79.2056 19.984 80.1016 19.888 81.0403 19.888C81.3389 19.888 81.6483 19.9093 81.9683 19.952C82.2883 19.9733 82.5869 20.016 82.8643 20.08C83.1629 20.1227 83.4189 20.1653 83.6323 20.208C83.8456 20.2507 83.9949 20.2827 84.0803 20.304V19.472C84.0803 18.9813 84.0269 18.5013 83.9203 18.032C83.8136 17.5413 83.6216 17.1147 83.3443 16.752C83.0669 16.368 82.6829 16.0693 82.1923 15.856C81.7229 15.6213 81.1043 15.504 80.3363 15.504C79.3549 15.504 78.4909 15.5787 77.7443 15.728C77.0189 15.856 76.4749 15.9947 76.1123 16.144L75.7603 13.68C76.1443 13.5093 76.7843 13.3493 77.6803 13.2C78.5763 13.0293 79.5469 12.944 80.5923 12.944ZM105.919 13.36V30H103.039V17.328C102.399 18.1387 101.695 19.088 100.927 20.176C100.159 21.264 99.391 22.3947 98.623 23.568C97.855 24.72 97.119 25.8613 96.415 26.992C95.711 28.1227 95.103 29.1253 94.591 30H91.935V13.36H94.815V25.328C95.3697 24.4107 95.999 23.408 96.703 22.32C97.407 21.2107 98.1323 20.1227 98.879 19.056C99.647 17.968 100.404 16.9333 101.151 15.952C101.919 14.9493 102.634 14.0853 103.295 13.36H105.919ZM98.943 10.672C97.599 10.672 96.5003 10.3307 95.647 9.648C94.815 8.96533 94.3137 8.016 94.143 6.8L96.415 6.192C96.5857 6.87467 96.8737 7.42933 97.279 7.856C97.6843 8.28267 98.239 8.496 98.943 8.496C99.647 8.496 100.202 8.28267 100.607 7.856C101.012 7.42933 101.3 6.87467 101.471 6.192L103.711 6.8C103.54 8.016 103.039 8.96533 102.207 9.648C101.375 10.3307 100.287 10.672 98.943 10.672ZM122.773 13.36V15.856H117.365V30H114.389V15.856H108.981V13.36H122.773ZM124.913 21.712C124.913 20.24 125.127 18.96 125.553 17.872C125.98 16.7627 126.545 15.8453 127.249 15.12C127.953 14.3947 128.764 13.8507 129.681 13.488C130.599 13.1253 131.537 12.944 132.497 12.944C134.737 12.944 136.455 13.648 137.649 15.056C138.844 16.4427 139.441 18.5653 139.441 21.424C139.441 21.552 139.441 21.7227 139.441 21.936C139.441 22.128 139.431 22.3093 139.409 22.48H128.017C128.145 24.208 128.647 25.52 129.521 26.416C130.396 27.312 131.761 27.76 133.617 27.76C134.663 27.76 135.537 27.6747 136.241 27.504C136.967 27.312 137.511 27.1307 137.873 26.96L138.289 29.456C137.927 29.648 137.287 29.8507 136.369 30.064C135.473 30.2773 134.449 30.384 133.297 30.384C131.847 30.384 130.588 30.1707 129.521 29.744C128.476 29.296 127.612 28.688 126.929 27.92C126.247 27.152 125.735 26.2453 125.393 25.2C125.073 24.1333 124.913 22.9707 124.913 21.712ZM136.337 20.08C136.359 18.736 136.017 17.6373 135.313 16.784C134.631 15.9093 133.681 15.472 132.465 15.472C131.783 15.472 131.175 15.6107 130.641 15.888C130.129 16.144 129.692 16.4853 129.329 16.912C128.967 17.3387 128.679 17.8293 128.465 18.384C128.273 18.9387 128.145 19.504 128.081 20.08H136.337ZM161.427 15.856H154.099V30H151.123V13.36H161.427V15.856ZM176.05 21.712C176.05 19.7707 175.57 18.2773 174.61 17.232C173.65 16.1867 172.37 15.664 170.77 15.664C169.874 15.664 169.17 15.696 168.658 15.76C168.167 15.824 167.772 15.8987 167.474 15.984V26.48C167.836 26.7787 168.359 27.0667 169.042 27.344C169.724 27.6213 170.471 27.76 171.282 27.76C172.135 27.76 172.86 27.6107 173.458 27.312C174.076 26.992 174.578 26.5653 174.962 26.032C175.346 25.4773 175.623 24.8373 175.794 24.112C175.964 23.3653 176.05 22.5653 176.05 21.712ZM179.154 21.712C179.154 22.9707 178.983 24.1333 178.642 25.2C178.322 26.2667 177.842 27.184 177.202 27.952C176.562 28.72 175.772 29.3173 174.834 29.744C173.916 30.1707 172.86 30.384 171.666 30.384C170.706 30.384 169.852 30.256 169.106 30C168.38 29.744 167.836 29.4987 167.474 29.264V35.92H164.498V13.872C165.202 13.7013 166.076 13.52 167.122 13.328C168.188 13.1147 169.415 13.008 170.802 13.008C172.082 13.008 173.234 13.2107 174.258 13.616C175.282 14.0213 176.156 14.5973 176.882 15.344C177.607 16.0907 178.162 17.008 178.546 18.096C178.951 19.1627 179.154 20.368 179.154 21.712ZM180.952 33.104C181.186 33.2107 181.485 33.3067 181.848 33.392C182.232 33.4987 182.605 33.552 182.968 33.552C184.141 33.552 185.058 33.2853 185.72 32.752C186.381 32.24 186.978 31.3973 187.512 30.224C186.168 27.664 184.909 24.9547 183.736 22.096C182.584 19.216 181.624 16.304 180.856 13.36H184.056C184.29 14.32 184.568 15.3547 184.888 16.464C185.229 17.5733 185.602 18.7147 186.008 19.888C186.413 21.0613 186.85 22.2347 187.32 23.408C187.789 24.5813 188.28 25.712 188.792 26.8C189.602 24.56 190.306 22.3413 190.904 20.144C191.501 17.9467 192.066 15.6853 192.6 13.36H195.672C194.904 16.496 194.05 19.5147 193.112 22.416C192.173 25.296 191.16 27.9947 190.072 30.512C189.645 31.472 189.197 32.2933 188.728 32.976C188.28 33.68 187.778 34.256 187.224 34.704C186.669 35.152 186.04 35.4827 185.336 35.696C184.653 35.9093 183.874 36.016 183 36.016C182.765 36.016 182.52 35.9947 182.264 35.952C182.008 35.9307 181.752 35.888 181.496 35.824C181.261 35.7813 181.037 35.728 180.824 35.664C180.632 35.6 180.493 35.5467 180.408 35.504L180.952 33.104ZM212.186 30H209.21V15.856H201.786V30H198.81V13.36H212.186V30ZM230.686 30H227.71V15.856H220.286V30H217.31V13.36H230.686V30ZM233.858 33.104C234.093 33.2107 234.391 33.3067 234.754 33.392C235.138 33.4987 235.511 33.552 235.874 33.552C237.047 33.552 237.965 33.2853 238.626 32.752C239.287 32.24 239.885 31.3973 240.418 30.224C239.074 27.664 237.815 24.9547 236.642 22.096C235.49 19.216 234.53 16.304 233.762 13.36H236.962C237.197 14.32 237.474 15.3547 237.794 16.464C238.135 17.5733 238.509 18.7147 238.914 19.888C239.319 21.0613 239.757 22.2347 240.226 23.408C240.695 24.5813 241.186 25.712 241.698 26.8C242.509 24.56 243.213 22.3413 243.81 20.144C244.407 17.9467 244.973 15.6853 245.506 13.36H248.578C247.81 16.496 246.957 19.5147 246.018 22.416C245.079 25.296 244.066 27.9947 242.978 30.512C242.551 31.472 242.103 32.2933 241.634 32.976C241.186 33.68 240.685 34.256 240.13 34.704C239.575 35.152 238.946 35.4827 238.242 35.696C237.559 35.9093 236.781 36.016 235.906 36.016C235.671 36.016 235.426 35.9947 235.17 35.952C234.914 35.9307 234.658 35.888 234.402 35.824C234.167 35.7813 233.943 35.728 233.73 35.664C233.538 35.6 233.399 35.5467 233.314 35.504L233.858 33.104Z" fill="black"/>
<path d="M285.616 113.824V136H282.512V116.48H271.856V136H268.752V113.824H285.616ZM305.623 127.68C305.623 129.003 305.431 130.197 305.047 131.264C304.663 132.331 304.119 133.248 303.415 134.016C302.732 134.784 301.911 135.381 300.951 135.808C299.991 136.213 298.946 136.416 297.815 136.416C296.684 136.416 295.639 136.213 294.679 135.808C293.719 135.381 292.887 134.784 292.183 134.016C291.5 133.248 290.967 132.331 290.583 131.264C290.199 130.197 290.007 129.003 290.007 127.68C290.007 126.379 290.199 125.195 290.583 124.128C290.967 123.04 291.5 122.112 292.183 121.344C292.887 120.576 293.719 119.989 294.679 119.584C295.639 119.157 296.684 118.944 297.815 118.944C298.946 118.944 299.991 119.157 300.951 119.584C301.911 119.989 302.732 120.576 303.415 121.344C304.119 122.112 304.663 123.04 305.047 124.128C305.431 125.195 305.623 126.379 305.623 127.68ZM302.519 127.68C302.519 125.803 302.092 124.32 301.239 123.232C300.407 122.123 299.266 121.568 297.815 121.568C296.364 121.568 295.212 122.123 294.359 123.232C293.527 124.32 293.111 125.803 293.111 127.68C293.111 129.557 293.527 131.051 294.359 132.16C295.212 133.248 296.364 133.792 297.815 133.792C299.266 133.792 300.407 133.248 301.239 132.16C302.092 131.051 302.519 129.557 302.519 127.68ZM307.762 133.568H309.554C310.258 132.544 310.813 131.488 311.218 130.4C311.645 129.312 311.965 128.192 312.178 127.04C312.391 125.867 312.53 124.651 312.594 123.392C312.658 122.112 312.701 120.768 312.722 119.36H323.634V133.568H325.874V140.64H323.058V136H310.578V140.64H307.762V133.568ZM320.658 133.568V121.856H315.442C315.421 122.859 315.367 123.872 315.282 124.896C315.197 125.899 315.058 126.901 314.866 127.904C314.674 128.885 314.397 129.856 314.034 130.816C313.693 131.755 313.255 132.672 312.722 133.568H320.658ZM335.171 126.944C335.833 127.413 336.547 128.011 337.315 128.736C338.083 129.44 338.83 130.208 339.555 131.04C340.302 131.872 340.995 132.725 341.635 133.6C342.275 134.453 342.819 135.253 343.267 136H339.747C339.278 135.275 338.723 134.539 338.083 133.792C337.465 133.024 336.814 132.288 336.131 131.584C335.449 130.88 334.755 130.229 334.051 129.632C333.347 129.035 332.686 128.533 332.067 128.128V136H329.091V119.36H332.067V126.496C332.579 126.005 333.166 125.44 333.827 124.8C334.489 124.139 335.15 123.477 335.811 122.816C336.494 122.133 337.123 121.493 337.699 120.896C338.275 120.277 338.745 119.765 339.107 119.36H342.563C342.094 119.872 341.539 120.459 340.899 121.12C340.281 121.76 339.63 122.421 338.947 123.104C338.286 123.787 337.625 124.469 336.963 125.152C336.302 125.813 335.705 126.411 335.171 126.944ZM352.758 121.856C352.758 122.56 352.737 123.317 352.694 124.128C352.673 124.917 352.62 125.717 352.534 126.528C352.449 127.317 352.332 128.107 352.182 128.896C352.033 129.664 351.841 130.389 351.606 131.072C351.372 131.755 351.073 132.395 350.71 132.992C350.369 133.589 349.942 134.123 349.43 134.592C348.918 135.04 348.321 135.424 347.638 135.744C346.956 136.043 346.156 136.235 345.238 136.32L344.822 133.824C345.868 133.611 346.689 133.216 347.286 132.64C347.905 132.064 348.396 131.36 348.758 130.528C349.078 129.803 349.313 128.981 349.462 128.064C349.612 127.147 349.718 126.197 349.782 125.216C349.846 124.213 349.878 123.211 349.878 122.208C349.9 121.205 349.91 120.256 349.91 119.36H360.982V136H358.006V121.856H352.758ZM369.067 126.24H372.715C372.843 125.131 373.121 124.128 373.547 123.232C373.995 122.336 374.55 121.568 375.211 120.928C375.873 120.288 376.63 119.797 377.483 119.456C378.337 119.115 379.254 118.944 380.235 118.944C381.323 118.944 382.326 119.157 383.243 119.584C384.182 119.989 384.993 120.576 385.675 121.344C386.358 122.112 386.891 123.04 387.275 124.128C387.659 125.195 387.851 126.379 387.851 127.68C387.851 129.003 387.659 130.197 387.275 131.264C386.891 132.331 386.358 133.248 385.675 134.016C384.993 134.784 384.182 135.381 383.243 135.808C382.326 136.213 381.323 136.416 380.235 136.416C379.211 136.416 378.251 136.235 377.355 135.872C376.481 135.488 375.713 134.965 375.051 134.304C374.39 133.621 373.846 132.8 373.419 131.84C373.014 130.88 372.769 129.813 372.683 128.64H369.067V136H366.091V119.36H369.067V126.24ZM384.779 127.68C384.779 125.803 384.363 124.32 383.531 123.232C382.721 122.123 381.622 121.568 380.235 121.568C378.849 121.568 377.739 122.123 376.907 123.232C376.097 124.32 375.691 125.803 375.691 127.68C375.691 129.557 376.097 131.051 376.907 132.16C377.739 133.248 378.849 133.792 380.235 133.792C381.622 133.792 382.721 133.248 383.531 132.16C384.363 131.051 384.779 129.557 384.779 127.68ZM393.917 119.36V124.256C393.917 125.515 394.237 126.4 394.877 126.912C395.517 127.403 396.391 127.648 397.501 127.648C398.311 127.648 398.983 127.605 399.517 127.52C400.071 127.435 400.562 127.339 400.989 127.232V119.36H403.965V136H400.989V129.536C400.818 129.579 400.594 129.632 400.317 129.696C400.039 129.76 399.719 129.824 399.357 129.888C399.015 129.931 398.653 129.973 398.269 130.016C397.885 130.059 397.511 130.08 397.149 130.08C396.231 130.08 395.389 129.984 394.621 129.792C393.874 129.6 393.223 129.28 392.669 128.832C392.135 128.384 391.709 127.797 391.389 127.072C391.09 126.325 390.941 125.397 390.941 124.288V119.36H393.917ZM423.075 119.36V136H420.195V123.328C419.555 124.139 418.851 125.088 418.083 126.176C417.315 127.264 416.547 128.395 415.779 129.568C415.011 130.72 414.275 131.861 413.571 132.992C412.867 134.123 412.259 135.125 411.747 136H409.091V119.36H411.971V131.328C412.526 130.411 413.155 129.408 413.859 128.32C414.563 127.211 415.289 126.123 416.035 125.056C416.803 123.968 417.561 122.933 418.307 121.952C419.075 120.949 419.79 120.085 420.451 119.36H423.075ZM439.929 119.36V121.856H434.521V136H431.545V121.856H426.137V119.36H439.929ZM442.07 127.712C442.07 126.24 442.283 124.96 442.71 123.872C443.136 122.763 443.702 121.845 444.406 121.12C445.11 120.395 445.92 119.851 446.838 119.488C447.755 119.125 448.694 118.944 449.654 118.944C451.894 118.944 453.611 119.648 454.806 121.056C456 122.443 456.597 124.565 456.597 127.424C456.597 127.552 456.597 127.723 456.597 127.936C456.597 128.128 456.587 128.309 456.566 128.48H445.174C445.302 130.208 445.803 131.52 446.678 132.416C447.552 133.312 448.918 133.76 450.774 133.76C451.819 133.76 452.694 133.675 453.398 133.504C454.123 133.312 454.667 133.131 455.03 132.96L455.446 135.456C455.083 135.648 454.443 135.851 453.526 136.064C452.63 136.277 451.606 136.384 450.454 136.384C449.003 136.384 447.744 136.171 446.678 135.744C445.632 135.296 444.768 134.688 444.086 133.92C443.403 133.152 442.891 132.245 442.549 131.2C442.23 130.133 442.07 128.971 442.07 127.712ZM453.494 126.08C453.515 124.736 453.174 123.637 452.47 122.784C451.787 121.909 450.838 121.472 449.622 121.472C448.939 121.472 448.331 121.611 447.798 121.888C447.286 122.144 446.848 122.485 446.486 122.912C446.123 123.339 445.835 123.829 445.622 124.384C445.43 124.939 445.302 125.504 445.238 126.08H453.494ZM470.967 121.28C471.628 120.747 472.396 120.341 473.271 120.064C474.167 119.765 475.02 119.616 475.831 119.616C478.22 119.616 480.023 120.352 481.239 121.824C482.476 123.275 483.095 125.301 483.095 127.904C483.095 129.013 482.945 130.08 482.647 131.104C482.348 132.128 481.879 133.035 481.239 133.824C480.62 134.613 479.831 135.243 478.871 135.712C477.911 136.181 476.769 136.416 475.447 136.416C473.932 136.416 472.673 136.139 471.671 135.584C470.668 135.029 469.868 134.272 469.271 133.312C468.695 132.352 468.289 131.232 468.055 129.952C467.82 128.672 467.703 127.317 467.703 125.888C467.703 124.032 467.831 122.304 468.087 120.704C468.364 119.104 468.855 117.696 469.559 116.48C470.263 115.264 471.233 114.261 472.471 113.472C473.729 112.661 475.34 112.117 477.303 111.84C477.879 111.755 478.38 111.691 478.807 111.648C479.255 111.584 479.639 111.531 479.959 111.488C480.3 111.445 480.609 111.403 480.887 111.36C481.164 111.296 481.452 111.232 481.751 111.168L482.071 113.856C481.921 113.899 481.761 113.931 481.591 113.952C481.441 113.973 481.217 114.005 480.919 114.048C480.641 114.091 480.257 114.144 479.767 114.208C479.297 114.272 478.679 114.347 477.911 114.432C475.799 114.667 474.177 115.307 473.047 116.352C471.916 117.397 471.223 119.04 470.967 121.28ZM470.775 126.368C470.775 127.371 470.839 128.32 470.967 129.216C471.116 130.112 471.361 130.901 471.703 131.584C472.065 132.267 472.545 132.811 473.143 133.216C473.74 133.6 474.508 133.792 475.447 133.792C476.257 133.792 476.951 133.643 477.527 133.344C478.103 133.024 478.572 132.597 478.935 132.064C479.297 131.531 479.564 130.912 479.735 130.208C479.905 129.483 479.991 128.715 479.991 127.904C479.991 127.179 479.916 126.475 479.767 125.792C479.639 125.109 479.393 124.501 479.031 123.968C478.668 123.435 478.177 123.008 477.559 122.688C476.961 122.368 476.204 122.208 475.287 122.208C474.391 122.208 473.527 122.4 472.695 122.784C471.884 123.168 471.255 123.637 470.807 124.192C470.785 124.427 470.775 124.757 470.775 125.184C470.775 125.611 470.775 126.005 470.775 126.368ZM501.998 127.68C501.998 129.003 501.806 130.197 501.422 131.264C501.038 132.331 500.494 133.248 499.79 134.016C499.107 134.784 498.286 135.381 497.326 135.808C496.366 136.213 495.321 136.416 494.19 136.416C493.059 136.416 492.014 136.213 491.054 135.808C490.094 135.381 489.262 134.784 488.558 134.016C487.875 133.248 487.342 132.331 486.958 131.264C486.574 130.197 486.382 129.003 486.382 127.68C486.382 126.379 486.574 125.195 486.958 124.128C487.342 123.04 487.875 122.112 488.558 121.344C489.262 120.576 490.094 119.989 491.054 119.584C492.014 119.157 493.059 118.944 494.19 118.944C495.321 118.944 496.366 119.157 497.326 119.584C498.286 119.989 499.107 120.576 499.79 121.344C500.494 122.112 501.038 123.04 501.422 124.128C501.806 125.195 501.998 126.379 501.998 127.68ZM498.894 127.68C498.894 125.803 498.467 124.32 497.614 123.232C496.782 122.123 495.641 121.568 494.19 121.568C492.739 121.568 491.587 122.123 490.734 123.232C489.902 124.32 489.486 125.803 489.486 127.68C489.486 129.557 489.902 131.051 490.734 132.16C491.587 133.248 492.739 133.792 494.19 133.792C495.641 133.792 496.782 133.248 497.614 132.16C498.467 131.051 498.894 129.557 498.894 127.68ZM517.929 119.36V121.856H512.521V136H509.545V121.856H504.137V119.36H517.929ZM526.63 133.856C527.334 133.856 527.952 133.845 528.486 133.824C529.04 133.781 529.499 133.717 529.862 133.632V128.672C529.648 128.565 529.296 128.48 528.806 128.416C528.336 128.331 527.76 128.288 527.078 128.288C526.63 128.288 526.15 128.32 525.638 128.384C525.147 128.448 524.688 128.587 524.262 128.8C523.856 128.992 523.515 129.269 523.238 129.632C522.96 129.973 522.822 130.432 522.822 131.008C522.822 132.075 523.163 132.821 523.846 133.248C524.528 133.653 525.456 133.856 526.63 133.856ZM526.374 118.944C527.568 118.944 528.571 119.104 529.382 119.424C530.214 119.723 530.875 120.16 531.366 120.736C531.878 121.291 532.24 121.963 532.454 122.752C532.667 123.52 532.774 124.373 532.774 125.312V135.712C532.518 135.755 532.155 135.819 531.686 135.904C531.238 135.968 530.726 136.032 530.15 136.096C529.574 136.16 528.944 136.213 528.262 136.256C527.6 136.32 526.939 136.352 526.278 136.352C525.339 136.352 524.475 136.256 523.686 136.064C522.896 135.872 522.214 135.573 521.638 135.168C521.062 134.741 520.614 134.187 520.294 133.504C519.974 132.821 519.814 132 519.814 131.04C519.814 130.123 519.995 129.333 520.358 128.672C520.742 128.011 521.254 127.477 521.894 127.072C522.534 126.667 523.28 126.368 524.134 126.176C524.987 125.984 525.883 125.888 526.822 125.888C527.12 125.888 527.43 125.909 527.75 125.952C528.07 125.973 528.368 126.016 528.646 126.08C528.944 126.123 529.2 126.165 529.414 126.208C529.627 126.251 529.776 126.283 529.862 126.304V125.472C529.862 124.981 529.808 124.501 529.702 124.032C529.595 123.541 529.403 123.115 529.126 122.752C528.848 122.368 528.464 122.069 527.974 121.856C527.504 121.621 526.886 121.504 526.118 121.504C525.136 121.504 524.272 121.579 523.526 121.728C522.8 121.856 522.256 121.995 521.894 122.144L521.542 119.68C521.926 119.509 522.566 119.349 523.462 119.2C524.358 119.029 525.328 118.944 526.374 118.944Z" fill="black"/>
<path d="M572.456 259V264.92H569.512V256.344H571.848C572.936 255.107 573.768 253.741 574.344 252.248C574.941 250.733 575.368 249.144 575.624 247.48C575.901 245.795 576.061 244.056 576.104 242.264C576.168 240.472 576.211 238.659 576.232 236.824H588.776V256.344H591.56V264.92H588.616V259H572.456ZM579.272 239.48C579.208 240.888 579.133 242.328 579.048 243.8C578.984 245.251 578.824 246.701 578.568 248.152C578.333 249.581 577.981 250.989 577.512 252.376C577.043 253.763 576.381 255.085 575.528 256.344H585.672V239.48H579.272ZM609.373 250.68C609.373 252.003 609.181 253.197 608.797 254.264C608.413 255.331 607.869 256.248 607.165 257.016C606.482 257.784 605.661 258.381 604.701 258.808C603.741 259.213 602.696 259.416 601.565 259.416C600.434 259.416 599.389 259.213 598.429 258.808C597.469 258.381 596.637 257.784 595.933 257.016C595.25 256.248 594.717 255.331 594.333 254.264C593.949 253.197 593.757 252.003 593.757 250.68C593.757 249.379 593.949 248.195 594.333 247.128C594.717 246.04 595.25 245.112 595.933 244.344C596.637 243.576 597.469 242.989 598.429 242.584C599.389 242.157 600.434 241.944 601.565 241.944C602.696 241.944 603.741 242.157 604.701 242.584C605.661 242.989 606.482 243.576 607.165 244.344C607.869 245.112 608.413 246.04 608.797 247.128C609.181 248.195 609.373 249.379 609.373 250.68ZM606.269 250.68C606.269 248.803 605.842 247.32 604.989 246.232C604.157 245.123 603.016 244.568 601.565 244.568C600.114 244.568 598.962 245.123 598.109 246.232C597.277 247.32 596.861 248.803 596.861 250.68C596.861 252.557 597.277 254.051 598.109 255.16C598.962 256.248 600.114 256.792 601.565 256.792C603.016 256.792 604.157 256.248 604.989 255.16C605.842 254.051 606.269 252.557 606.269 250.68ZM616.248 244.28C616.909 243.747 617.677 243.341 618.552 243.064C619.448 242.765 620.301 242.616 621.112 242.616C623.501 242.616 625.304 243.352 626.52 244.824C627.757 246.275 628.376 248.301 628.376 250.904C628.376 252.013 628.227 253.08 627.928 254.104C627.629 255.128 627.16 256.035 626.52 256.824C625.901 257.613 625.112 258.243 624.152 258.712C623.192 259.181 622.051 259.416 620.728 259.416C619.213 259.416 617.955 259.139 616.952 258.584C615.949 258.029 615.149 257.272 614.552 256.312C613.976 255.352 613.571 254.232 613.336 252.952C613.101 251.672 612.984 250.317 612.984 248.888C612.984 247.032 613.112 245.304 613.368 243.704C613.645 242.104 614.136 240.696 614.84 239.48C615.544 238.264 616.515 237.261 617.752 236.472C619.011 235.661 620.621 235.117 622.584 234.84C623.16 234.755 623.661 234.691 624.088 234.648C624.536 234.584 624.92 234.531 625.24 234.488C625.581 234.445 625.891 234.403 626.168 234.36C626.445 234.296 626.733 234.232 627.032 234.168L627.352 236.856C627.203 236.899 627.043 236.931 626.872 236.952C626.723 236.973 626.499 237.005 626.2 237.048C625.923 237.091 625.539 237.144 625.048 237.208C624.579 237.272 623.96 237.347 623.192 237.432C621.08 237.667 619.459 238.307 618.328 239.352C617.197 240.397 616.504 242.04 616.248 244.28ZM616.056 249.368C616.056 250.371 616.12 251.32 616.248 252.216C616.397 253.112 616.643 253.901 616.984 254.584C617.347 255.267 617.827 255.811 618.424 256.216C619.021 256.6 619.789 256.792 620.728 256.792C621.539 256.792 622.232 256.643 622.808 256.344C623.384 256.024 623.853 255.597 624.216 255.064C624.579 254.531 624.845 253.912 625.016 253.208C625.187 252.483 625.272 251.715 625.272 250.904C625.272 250.179 625.197 249.475 625.048 248.792C624.92 248.109 624.675 247.501 624.312 246.968C623.949 246.435 623.459 246.008 622.84 245.688C622.243 245.368 621.485 245.208 620.568 245.208C619.672 245.208 618.808 245.4 617.976 245.784C617.165 246.168 616.536 246.637 616.088 247.192C616.067 247.427 616.056 247.757 616.056 248.184C616.056 248.611 616.056 249.005 616.056 249.368ZM638.223 256.856C638.927 256.856 639.546 256.845 640.079 256.824C640.634 256.781 641.093 256.717 641.455 256.632V251.672C641.242 251.565 640.89 251.48 640.399 251.416C639.93 251.331 639.354 251.288 638.671 251.288C638.223 251.288 637.743 251.32 637.231 251.384C636.741 251.448 636.282 251.587 635.855 251.8C635.45 251.992 635.109 252.269 634.831 252.632C634.554 252.973 634.415 253.432 634.415 254.008C634.415 255.075 634.757 255.821 635.439 256.248C636.122 256.653 637.05 256.856 638.223 256.856ZM637.967 241.944C639.162 241.944 640.165 242.104 640.975 242.424C641.807 242.723 642.469 243.16 642.959 243.736C643.471 244.291 643.834 244.963 644.047 245.752C644.261 246.52 644.367 247.373 644.367 248.312V258.712C644.111 258.755 643.749 258.819 643.279 258.904C642.831 258.968 642.319 259.032 641.743 259.096C641.167 259.16 640.538 259.213 639.855 259.256C639.194 259.32 638.533 259.352 637.871 259.352C636.933 259.352 636.069 259.256 635.279 259.064C634.49 258.872 633.807 258.573 633.231 258.168C632.655 257.741 632.207 257.187 631.887 256.504C631.567 255.821 631.407 255 631.407 254.04C631.407 253.123 631.589 252.333 631.951 251.672C632.335 251.011 632.847 250.477 633.487 250.072C634.127 249.667 634.874 249.368 635.727 249.176C636.581 248.984 637.477 248.888 638.415 248.888C638.714 248.888 639.023 248.909 639.343 248.952C639.663 248.973 639.962 249.016 640.239 249.08C640.538 249.123 640.794 249.165 641.007 249.208C641.221 249.251 641.37 249.283 641.455 249.304V248.472C641.455 247.981 641.402 247.501 641.295 247.032C641.189 246.541 640.997 246.115 640.719 245.752C640.442 245.368 640.058 245.069 639.567 244.856C639.098 244.621 638.479 244.504 637.711 244.504C636.73 244.504 635.866 244.579 635.119 244.728C634.394 244.856 633.85 244.995 633.487 245.144L633.135 242.68C633.519 242.509 634.159 242.349 635.055 242.2C635.951 242.029 636.922 241.944 637.967 241.944ZM652.222 256.76C652.35 256.781 652.531 256.803 652.766 256.824C653.001 256.845 653.267 256.867 653.566 256.888C653.865 256.888 654.174 256.899 654.494 256.92C654.835 256.92 655.155 256.92 655.454 256.92C656.073 256.92 656.659 256.877 657.214 256.792C657.79 256.707 658.281 256.557 658.686 256.344C659.113 256.131 659.443 255.853 659.678 255.512C659.934 255.149 660.062 254.691 660.062 254.136C660.062 253.603 659.945 253.165 659.71 252.824C659.497 252.461 659.198 252.173 658.814 251.96C658.43 251.747 657.971 251.597 657.438 251.512C656.926 251.427 656.371 251.384 655.774 251.384H652.222V256.76ZM655.39 249.176C655.966 249.176 656.489 249.144 656.958 249.08C657.449 248.995 657.865 248.856 658.206 248.664C658.569 248.472 658.846 248.216 659.038 247.896C659.251 247.576 659.358 247.171 659.358 246.68C659.358 246.168 659.23 245.763 658.974 245.464C658.718 245.165 658.377 244.941 657.95 244.792C657.545 244.621 657.075 244.515 656.542 244.472C656.03 244.408 655.507 244.376 654.974 244.376C654.483 244.376 653.982 244.387 653.47 244.408C652.979 244.429 652.563 244.451 652.222 244.472V249.176H655.39ZM655.326 259.288C654.067 259.288 652.905 259.224 651.838 259.096C650.771 258.989 649.929 258.861 649.31 258.712V242.52C649.929 242.371 650.771 242.243 651.838 242.136C652.905 242.008 654.067 241.944 655.326 241.944C656.201 241.944 657.054 242.019 657.886 242.168C658.718 242.317 659.454 242.573 660.094 242.936C660.734 243.277 661.246 243.757 661.63 244.376C662.035 244.973 662.238 245.72 662.238 246.616C662.238 247.427 662.035 248.12 661.63 248.696C661.225 249.272 660.681 249.72 659.998 250.04C660.915 250.36 661.641 250.84 662.174 251.48C662.729 252.099 663.006 252.973 663.006 254.104C663.006 255.107 662.803 255.939 662.398 256.6C662.014 257.261 661.47 257.795 660.766 258.2C660.083 258.605 659.273 258.883 658.334 259.032C657.395 259.203 656.393 259.288 655.326 259.288ZM673.145 256.92C674.404 256.92 675.396 256.675 676.121 256.184C676.847 255.693 677.209 254.904 677.209 253.816C677.209 253.283 677.103 252.824 676.889 252.44C676.676 252.056 676.377 251.747 675.993 251.512C675.631 251.256 675.204 251.075 674.713 250.968C674.223 250.84 673.7 250.776 673.145 250.776C672.569 250.776 671.972 250.797 671.353 250.84C670.756 250.861 670.244 250.925 669.817 251.032V256.76C669.945 256.781 670.137 256.803 670.393 256.824C670.649 256.845 670.927 256.867 671.225 256.888C671.545 256.888 671.865 256.899 672.185 256.92C672.527 256.92 672.847 256.92 673.145 256.92ZM666.841 258.648V242.36H669.817V248.728C669.988 248.685 670.212 248.643 670.489 248.6C670.788 248.557 671.097 248.515 671.417 248.472C671.759 248.429 672.111 248.397 672.473 248.376C672.836 248.355 673.177 248.344 673.497 248.344C674.415 248.344 675.279 248.451 676.089 248.664C676.9 248.856 677.604 249.176 678.201 249.624C678.82 250.051 679.311 250.616 679.673 251.32C680.036 252.003 680.217 252.824 680.217 253.784C680.217 254.787 680.047 255.64 679.705 256.344C679.364 257.048 678.873 257.624 678.233 258.072C677.593 258.52 676.825 258.84 675.929 259.032C675.055 259.245 674.073 259.352 672.985 259.352C671.919 259.352 670.873 259.288 669.849 259.16C668.825 259.053 667.823 258.883 666.841 258.648ZM693.992 242.36V244.856H688.584V259H685.608V244.856H680.2V242.36H693.992ZM696.132 250.712C696.132 249.24 696.345 247.96 696.772 246.872C697.199 245.763 697.764 244.845 698.468 244.12C699.172 243.395 699.983 242.851 700.9 242.488C701.817 242.125 702.756 241.944 703.716 241.944C705.956 241.944 707.673 242.648 708.868 244.056C710.063 245.443 710.66 247.565 710.66 250.424C710.66 250.552 710.66 250.723 710.66 250.936C710.66 251.128 710.649 251.309 710.628 251.48H699.236C699.364 253.208 699.865 254.52 700.74 255.416C701.615 256.312 702.98 256.76 704.836 256.76C705.881 256.76 706.756 256.675 707.46 256.504C708.185 256.312 708.729 256.131 709.092 255.96L709.508 258.456C709.145 258.648 708.505 258.851 707.588 259.064C706.692 259.277 705.668 259.384 704.516 259.384C703.065 259.384 701.807 259.171 700.74 258.744C699.695 258.296 698.831 257.688 698.148 256.92C697.465 256.152 696.953 255.245 696.612 254.2C696.292 253.133 696.132 251.971 696.132 250.712ZM707.556 249.08C707.577 247.736 707.236 246.637 706.532 245.784C705.849 244.909 704.9 244.472 703.684 244.472C703.001 244.472 702.393 244.611 701.86 244.888C701.348 245.144 700.911 245.485 700.548 245.912C700.185 246.339 699.897 246.829 699.684 247.384C699.492 247.939 699.364 248.504 699.3 249.08H707.556ZM728.421 249.944C729.083 250.413 729.797 251.011 730.565 251.736C731.333 252.44 732.08 253.208 732.805 254.04C733.552 254.872 734.245 255.725 734.885 256.6C735.525 257.453 736.069 258.253 736.517 259H732.997C732.528 258.275 731.973 257.539 731.333 256.792C730.715 256.024 730.064 255.288 729.381 254.584C728.699 253.88 728.005 253.229 727.301 252.632C726.597 252.035 725.936 251.533 725.317 251.128V259H722.341V242.36H725.317V249.496C725.829 249.005 726.416 248.44 727.077 247.8C727.739 247.139 728.4 246.477 729.061 245.816C729.744 245.133 730.373 244.493 730.949 243.896C731.525 243.277 731.995 242.765 732.357 242.36H735.813C735.344 242.872 734.789 243.459 734.149 244.12C733.531 244.76 732.88 245.421 732.197 246.104C731.536 246.787 730.875 247.469 730.213 248.152C729.552 248.813 728.955 249.411 728.421 249.944ZM753.279 250.68C753.279 252.003 753.087 253.197 752.703 254.264C752.319 255.331 751.775 256.248 751.071 257.016C750.389 257.784 749.567 258.381 748.607 258.808C747.647 259.213 746.602 259.416 745.471 259.416C744.341 259.416 743.295 259.213 742.335 258.808C741.375 258.381 740.543 257.784 739.839 257.016C739.157 256.248 738.623 255.331 738.239 254.264C737.855 253.197 737.663 252.003 737.663 250.68C737.663 249.379 737.855 248.195 738.239 247.128C738.623 246.04 739.157 245.112 739.839 244.344C740.543 243.576 741.375 242.989 742.335 242.584C743.295 242.157 744.341 241.944 745.471 241.944C746.602 241.944 747.647 242.157 748.607 242.584C749.567 242.989 750.389 243.576 751.071 244.344C751.775 245.112 752.319 246.04 752.703 247.128C753.087 248.195 753.279 249.379 753.279 250.68ZM750.175 250.68C750.175 248.803 749.749 247.32 748.895 246.232C748.063 245.123 746.922 244.568 745.471 244.568C744.021 244.568 742.869 245.123 742.015 246.232C741.183 247.32 740.767 248.803 740.767 250.68C740.767 252.557 741.183 254.051 742.015 255.16C742.869 256.248 744.021 256.792 745.471 256.792C746.922 256.792 748.063 256.248 748.895 255.16C749.749 254.051 750.175 252.557 750.175 250.68ZM760.634 246.744C760.421 248.856 760.261 250.968 760.154 253.08C760.048 255.171 759.962 257.144 759.898 259H757.05C757.093 257.699 757.157 256.344 757.242 254.936C757.328 253.507 757.424 252.077 757.53 250.648C757.637 249.197 757.754 247.779 757.882 246.392C758.01 244.984 758.149 243.64 758.298 242.36H761.018C761.701 243.469 762.501 244.995 763.418 246.936C764.336 248.856 765.392 251.075 766.586 253.592C767.781 251.075 768.837 248.856 769.754 246.936C770.672 244.995 771.472 243.469 772.154 242.36H774.906C775.056 243.64 775.194 244.984 775.322 246.392C775.45 247.779 775.568 249.197 775.674 250.648C775.781 252.077 775.877 253.507 775.962 254.936C776.048 256.344 776.112 257.699 776.154 259H773.21C773.146 257.144 773.061 255.171 772.954 253.08C772.848 250.968 772.688 248.856 772.474 246.744C772.133 247.405 771.738 248.205 771.29 249.144C770.842 250.061 770.394 251 769.946 251.96C769.52 252.92 769.114 253.837 768.73 254.712C768.346 255.587 768.048 256.28 767.834 256.792H765.338C765.104 256.259 764.784 255.555 764.378 254.68C763.994 253.805 763.578 252.888 763.13 251.928C762.704 250.947 762.266 249.997 761.818 249.08C761.37 248.141 760.976 247.363 760.634 246.744ZM786.505 256.856C787.209 256.856 787.827 256.845 788.361 256.824C788.915 256.781 789.374 256.717 789.737 256.632V251.672C789.523 251.565 789.171 251.48 788.681 251.416C788.211 251.331 787.635 251.288 786.953 251.288C786.505 251.288 786.025 251.32 785.513 251.384C785.022 251.448 784.563 251.587 784.137 251.8C783.731 251.992 783.39 252.269 783.113 252.632C782.835 252.973 782.697 253.432 782.697 254.008C782.697 255.075 783.038 255.821 783.721 256.248C784.403 256.653 785.331 256.856 786.505 256.856ZM786.249 241.944C787.443 241.944 788.446 242.104 789.257 242.424C790.089 242.723 790.75 243.16 791.241 243.736C791.753 244.291 792.115 244.963 792.329 245.752C792.542 246.52 792.649 247.373 792.649 248.312V258.712C792.393 258.755 792.03 258.819 791.561 258.904C791.113 258.968 790.601 259.032 790.025 259.096C789.449 259.16 788.819 259.213 788.137 259.256C787.475 259.32 786.814 259.352 786.153 259.352C785.214 259.352 784.35 259.256 783.561 259.064C782.771 258.872 782.089 258.573 781.513 258.168C780.937 257.741 780.489 257.187 780.169 256.504C779.849 255.821 779.689 255 779.689 254.04C779.689 253.123 779.87 252.333 780.233 251.672C780.617 251.011 781.129 250.477 781.769 250.072C782.409 249.667 783.155 249.368 784.009 249.176C784.862 248.984 785.758 248.888 786.697 248.888C786.995 248.888 787.305 248.909 787.625 248.952C787.945 248.973 788.243 249.016 788.521 249.08C788.819 249.123 789.075 249.165 789.289 249.208C789.502 249.251 789.651 249.283 789.737 249.304V248.472C789.737 247.981 789.683 247.501 789.577 247.032C789.47 246.541 789.278 246.115 789.001 245.752C788.723 245.368 788.339 245.069 787.849 244.856C787.379 244.621 786.761 244.504 785.993 244.504C785.011 244.504 784.147 244.579 783.401 244.728C782.675 244.856 782.131 244.995 781.769 245.144L781.417 242.68C781.801 242.509 782.441 242.349 783.337 242.2C784.233 242.029 785.203 241.944 786.249 241.944ZM811.223 259H808.247V251.64H800.567V259H797.591V242.36H800.567V249.144H808.247V242.36H811.223V259ZM814.293 256.568H816.085C816.789 255.544 817.344 254.488 817.749 253.4C818.176 252.312 818.496 251.192 818.709 250.04C818.923 248.867 819.061 247.651 819.125 246.392C819.189 245.112 819.232 243.768 819.253 242.36H830.165V256.568H832.405V263.64H829.589V259H817.109V263.64H814.293V256.568ZM827.189 256.568V244.856H821.973C821.952 245.859 821.899 246.872 821.813 247.896C821.728 248.899 821.589 249.901 821.397 250.904C821.205 251.885 820.928 252.856 820.565 253.816C820.224 254.755 819.787 255.672 819.253 256.568H827.189ZM841.735 250.776C841.159 250.776 840.593 250.797 840.039 250.84C839.505 250.861 839.025 250.925 838.599 251.032V256.76C838.727 256.781 838.908 256.803 839.143 256.824C839.399 256.845 839.665 256.867 839.943 256.888C840.241 256.888 840.54 256.899 840.839 256.92C841.137 256.92 841.404 256.92 841.639 256.92C842.94 256.92 843.943 256.675 844.647 256.184C845.351 255.693 845.703 254.904 845.703 253.816C845.703 253.283 845.585 252.824 845.351 252.44C845.137 252.056 844.839 251.747 844.455 251.512C844.092 251.256 843.676 251.075 843.207 250.968C842.737 250.84 842.247 250.776 841.735 250.776ZM835.623 242.36H838.599V248.728C838.961 248.643 839.484 248.557 840.167 248.472C840.871 248.387 841.543 248.344 842.183 248.344C843.057 248.344 843.889 248.451 844.679 248.664C845.468 248.856 846.161 249.176 846.759 249.624C847.356 250.051 847.825 250.616 848.167 251.32C848.529 252.003 848.711 252.824 848.711 253.784C848.711 254.787 848.54 255.64 848.199 256.344C847.857 257.048 847.377 257.624 846.759 258.072C846.14 258.52 845.393 258.84 844.519 259.032C843.644 259.245 842.684 259.352 841.639 259.352C840.636 259.352 839.623 259.288 838.599 259.16C837.575 259.053 836.583 258.883 835.623 258.648V242.36ZM854.759 259H851.783V242.36H854.759V259Z" fill="black"/>
<path d="M125 65.1191C138.208 95.364 177.581 150.265 229.406 127.913M229.406 127.913L213.518 121.71M229.406 127.913L221.43 140.056" stroke="#606E7F" stroke-width="3" stroke-linecap="round" stroke-linejoin="round"/>
<path d="M810 291.119C823.208 321.364 862.581 376.265 914.406 353.913M914.406 353.913L898.518 347.71M914.406 353.913L906.43 366.056" stroke="#606E7F" stroke-width="3" stroke-linecap="round" stroke-linejoin="round"/>
<path d="M569 125C603.853 125.158 673.56 140.38 673.56 200M673.56 200L660.9 187.184M673.56 200L682 187.184" stroke="#606E7F" stroke-width="3" stroke-linecap="round" stroke-linejoin="round"/>
<path d="M1033.07 361.581C1034.56 361.581 1035.68 360.969 1036.52 359.744L1059.95 323.103C1060.56 322.168 1060.79 321.395 1060.79 320.621C1060.79 318.688 1059.43 317.334 1057.47 317.334C1056.08 317.334 1055.28 317.817 1054.44 319.171L1032.94 353.46L1021.76 338.732C1020.92 337.669 1020.09 337.218 1018.86 337.218C1016.86 337.218 1015.45 338.604 1015.45 340.537C1015.45 341.407 1015.74 342.213 1016.44 343.083L1029.59 359.776C1030.59 361.001 1031.62 361.581 1033.07 361.581Z" fill="#1B3048"/>
</svg>
