<svg width="525" height="556" viewBox="0 0 525 556" fill="none" xmlns="http://www.w3.org/2000/svg">
<path fill-rule="evenodd" clip-rule="evenodd" d="M199.321 -221.214C295.484 -220.96 392.655 -343.093 472.392 -289.322C551.148 -236.212 497.935 -108.014 507.378 -13.4732C514.336 56.1893 533.839 122.303 520.366 191.003C505.337 267.635 478.014 340.726 426.418 399.331C364.162 470.045 293.342 549.917 199.321 555.662C104.197 561.474 22.7243 491.296 -48.8674 428.37C-114.921 370.312 -158.246 295.203 -190.226 213.268C-224.117 126.433 -258.483 35.4824 -237.675 -55.3819C-215.84 -150.73 -166.228 -256.072 -74.8004 -290.768C15.549 -325.053 102.689 -221.469 199.321 -221.214Z" fill="#F1F8FF"/>
</svg>
