<svg width="45" height="45" viewBox="0 0 45 45" fill="none" xmlns="http://www.w3.org/2000/svg">
<g filter="url(#filter0_d)">
<rect width="41" height="41" rx="5" fill="#4680C2"/>
<rect x="15" y="23" width="4" height="16" transform="rotate(-90 15 23)" fill="white"/>
<path d="M10 7H7C6.44772 7 6 7.44771 6 8V33C6 33.5523 6.44772 34 7 34H10H26V30H10V11H26V7H10Z" fill="white"/>
<path d="M36.1421 21.0711L29.071 28.1421L26.2426 25.3137L33.3137 18.2426L36.1421 21.0711Z" fill="white"/>
<path d="M33.3137 23.8995L26.2426 16.8285L29.071 14L36.1421 21.0711L33.3137 23.8995Z" fill="white"/>
</g>
<defs>
<filter id="filter0_d" x="0" y="0" width="45" height="45" filterUnits="userSpaceOnUse" color-interpolation-filters="sRGB">
<feFlood flood-opacity="0" result="BackgroundImageFix"/>
<feColorMatrix in="SourceAlpha" type="matrix" values="0 0 0 0 0 0 0 0 0 0 0 0 0 0 0 0 0 0 127 0"/>
<feOffset dx="4" dy="4"/>
<feColorMatrix type="matrix" values="0 0 0 0 0.27451 0 0 0 0 0.501961 0 0 0 0 0.760784 0 0 0 0.1 0"/>
<feBlend mode="normal" in2="BackgroundImageFix" result="effect1_dropShadow"/>
<feBlend mode="normal" in="SourceGraphic" in2="effect1_dropShadow" result="shape"/>
</filter>
</defs>
</svg>
