<svg width="28" height="28" viewBox="0 0 28 28" fill="none" xmlns="http://www.w3.org/2000/svg">
<g filter="url(#filter0_d)">
<path d="M0 5C0 2.23858 2.23858 0 5 0H19C21.7614 0 24 2.23858 24 5V19C24 21.7614 21.7614 24 19 24H5C2.23858 24 0 21.7614 0 19V5Z" fill="#4680C2"/>
<path d="M11.8417 11.5211C12.0407 11.5211 12.1944 11.4689 12.312 11.347L15.0158 8.74378C15.1515 8.61318 15.2148 8.46517 15.2148 8.28234C15.2148 8.11692 15.1424 7.94279 15.0158 7.8296L12.312 5.19154C12.1944 5.06095 12.0317 5 11.8417 5C11.48 5 11.1997 5.28731 11.1997 5.65299C11.1997 5.81841 11.263 5.96642 11.3715 6.09701L12.8907 7.50746C12.5923 7.46393 12.2849 7.43781 11.9955 7.43781C8.67671 7.43781 6 10.0149 6 13.2189C6 16.4142 8.68576 19 12.0045 19C15.3142 19 18 16.4142 18 13.2189C18 12.8358 17.7197 12.5572 17.3127 12.5572C16.9239 12.5572 16.6707 12.8358 16.6707 13.2189C16.6707 15.709 14.5818 17.7201 12.0045 17.7201C9.41824 17.7201 7.32931 15.709 7.32931 13.2189C7.32931 10.7114 9.40919 8.70896 11.9955 8.70896C12.4115 8.70896 12.7913 8.73507 13.1258 8.79602L11.3806 10.4502C11.263 10.5721 11.1997 10.7201 11.1997 10.8856C11.1997 11.2512 11.48 11.5211 11.8417 11.5211Z" fill="white"/>
</g>
<defs>
<filter id="filter0_d" x="0" y="0" width="28" height="28" filterUnits="userSpaceOnUse" color-interpolation-filters="sRGB">
<feFlood flood-opacity="0" result="BackgroundImageFix"/>
<feColorMatrix in="SourceAlpha" type="matrix" values="0 0 0 0 0 0 0 0 0 0 0 0 0 0 0 0 0 0 127 0"/>
<feOffset dx="4" dy="4"/>
<feColorMatrix type="matrix" values="0 0 0 0 0.27451 0 0 0 0 0.501961 0 0 0 0 0.760784 0 0 0 0.1 0"/>
<feBlend mode="normal" in2="BackgroundImageFix" result="effect1_dropShadow"/>
<feBlend mode="normal" in="SourceGraphic" in2="effect1_dropShadow" result="shape"/>
</filter>
</defs>
</svg>
