<svg width="26" height="44" viewBox="0 0 26 44" fill="none" xmlns="http://www.w3.org/2000/svg">
<path fill-rule="evenodd" clip-rule="evenodd" d="M16.1218 12.4372C20.2002 12.4372 23.5064 15.7434 23.5064 19.8218C23.5064 23.9002 20.2002 27.2064 16.1218 27.2064L16.1218 22.5424C17.6244 22.5424 18.8425 21.3244 18.8425 19.8218C18.8425 18.3192 17.6244 17.1012 16.1218 17.1012L16.1218 12.4372ZM16.1218 17.1012C16.1218 17.1012 16.1218 17.1012 16.1218 17.1012L16.1218 22.5424C16.1218 22.5424 16.1218 22.5424 16.1218 22.5424L16.1218 17.1012Z" fill="#606E7F"/>
<path fill-rule="evenodd" clip-rule="evenodd" d="M15.8948 23.3198C21.4757 23.3198 26 27.931 26 33.6193C26 39.3076 21.4757 43.9189 15.8948 43.9189L15.8948 38.5239C18.5524 38.5239 20.7068 36.3281 20.7068 33.6193C20.7068 30.9106 18.5524 28.7148 15.8948 28.7148L15.8948 23.3198ZM15.8948 28.7148C15.8948 28.7148 15.8948 28.7148 15.8948 28.7148L15.8948 38.5239C15.8948 38.5239 15.8948 38.5239 15.8948 38.5239L15.8948 28.7148Z" fill="#606E7F"/>
<rect x="11.458" y="17.1012" width="4.66396" height="17.8785" fill="#606E7F"/>
<path fill-rule="evenodd" clip-rule="evenodd" d="M11.4581 17.1012L7.07833 15.5483L0 34.9959L4.96394 34.9899L11.4581 17.1012Z" fill="#606E7F"/>
<path d="M5.25983 27.2064L5.2395 22.5597L16.1221 22.5425V27.2064L5.25983 27.2064Z" fill="#606E7F"/>
<path d="M11.4581 17.1012C6.7357 17.1012 2.90747 13.2729 2.90747 8.55059C2.90747 3.82823 6.7357 0 11.4581 0C16.1804 0 20.0086 3.82823 20.0086 8.55059H15.3447C15.3447 6.40406 13.6046 4.66396 11.4581 4.66396C9.31153 4.66396 7.57143 6.40406 7.57143 8.55059C7.57143 10.6971 9.31153 12.4372 11.4581 12.4372V17.1012Z" fill="#606E7F"/>
</svg>
