<svg width="100" height="100" viewBox="0 0 100 100" fill="none" xmlns="http://www.w3.org/2000/svg">
<path d="M56.7379 87.9878C55.055 87.9758 53.4365 87.323 52.1967 86.1561C50.9569 84.9893 50.1844 83.3917 50.029 81.6736C49.8736 79.9556 50.3466 78.2396 51.356 76.859C52.3654 75.4783 53.8392 74.5316 55.4913 74.2026C59.9039 73.1405 63.9384 70.8332 67.1382 67.5418C70.3379 64.2504 72.5752 60.1064 73.5966 55.5789C73.7728 54.6751 74.1228 53.8162 74.6263 53.0526C75.1297 52.289 75.7765 51.6359 76.5289 51.1314C77.2813 50.627 78.1242 50.2813 79.0083 50.1145C79.8925 49.9477 80.8002 49.9633 81.6784 50.1602C82.5567 50.3571 83.3879 50.7314 84.1234 51.2613C84.859 51.7912 85.4842 52.4661 85.9625 53.2465C86.4409 54.0269 86.7627 54.8972 86.9094 55.8066C87.056 56.7159 87.0244 57.6461 86.8165 58.5429H86.8284C85.2579 65.659 81.7628 72.1772 76.744 77.3497C71.7252 82.5223 65.3859 86.1396 58.4534 87.7869V87.7747C57.8857 87.9269 57.301 88.0026 56.7141 87.9999L56.7379 87.9878Z" fill="#636363"/>
</svg>
